{"title":"ATM 2012 HDRiP AC3-5 1 XviD-SiC","uid":7075945,"size":1484295146,"categoryP":"video","categoryS":"movies","magnet":"?xt=urn:btih:2b38b72ecdcaf1a1adb9c7ab155d1af84686541b&amp;dn=ATM+2012+HDRiP+AC3-5+1+XviD-SiC&amp;tr=udp%3A%2F%2Ftracker.openbittorrent.com%3A80&amp;tr=udp%3A%2F%2Fopen.demonii.com%3A1337&amp;tr=udp%3A%2F%2Ftracker.coppersurfer.tk%3A6969&amp;tr=udp%3A%2F%2Fexodus.desync.com%3A6969","seeders":0,"leechers":1,"uploader":"HeroMaster","files":-1,"time":1330841080,"description":"ATM 2012 HDRiP AC3-5 1 XviD-SiC\n\nIMDB Link: &lt;a href=&quot;\nhttp://www.imdb.com/title/tt1603257/&quot; rel=&quot;nofollow&quot; target=&quot;_NEW&quot;&gt;\nhttp://www.imdb.com/title/tt1603257/&lt;/a&gt;\n\nDescription:\nOn a late night visit to an ATM, three co-workers end up in a desperate fight for their lives when they become trapped by an unknown man.\n\nMediaInfo:\nGeneral\nComplete name : ATM.2012.HDRiP.AC3-5.1.XviD-SiC.avi\nFormat : AVI\nFormat/Info : Audio Video Interleave\nFile size : 1.37 GiB\nDuration : 1h 30mn\nOverall bit rate : 2 167 Kbps\n\nVideo\nID : 0\nFormat : MPEG-4 Visual\nFormat profile : Advanced Simple@L5\nFormat settings, BVOP : 2\nFormat settings, QPel : No\nFormat settings, GMC : No warppoints\nFormat settings, Matrix : Default (H.263)\nMuxing mode : Packed bitstream\nCodec ID : XVID\nCodec ID/Hint : XviD\nDuration : 1h 30mn\nBit rate : 1 775 Kbps\nWidth : 720 pixels\nHeight : 400 pixels\nDisplay aspect ratio : 16:9\nFrame rate : 23.976 fps\nColor space : YUV\nChroma subsampling : 4:2:0\nBit depth : 8 bits\nScan type : Progressive\nCompression mode : Lossy\nBits/(Pixel*Frame) : 0.257\nStream size : 1.12 GiB (82%)\nWriting library : XviD 1.1.2 (UTC 2006-11-01)\n\nAudio\nID : 1\nFormat : AC-3\nFormat/Info : Audio Coding 3\nMode extension : CM (complete main)\nCodec ID : 2000\nDuration : 1h 30mn\nBit rate mode : Constant\nBit rate : 384 Kbps\nChannel(s) : 6 channels\nChannel positions : Front: L C R, Side: L R, LFE\nSampling rate : 48.0 KHz\nBit depth : 16 bits\nCompression mode : Lossy\nStream size : 248 MiB (18%)\nAlignment : Aligned on interleaves\nInterleave, duration : 64 ms (1.53 video frames)\nInterleave, preload duration : 192 ms\n\n\nPoster:\n\n &lt;a href=&quot;\nhttp://i.imgur.com/B0Q4C.jpg&quot; rel=&quot;nofollow&quot; target=&quot;_NEW&quot;&gt;\nhttp://i.imgur.com/B0Q4C.jpg&lt;/a&gt;\n\n\nScreenshots:\n\n &lt;a href=&quot;\nhttp://i.imgur.com/5jRf3.jpg&quot; rel=&quot;nofollow&quot; target=&quot;_NEW&quot;&gt;\nhttp://i.imgur.com/5jRf3.jpg&lt;/a&gt;\n\n\nENJOY!","torrent":{"xt":"urn:btih:2b38b72ecdcaf1a1adb9c7ab155d1af84686541b","amp;dn":"ATM+2012+HDRiP+AC3-5+1+XviD-SiC","amp;tr":["udp%3A%2F%2Ftracker.openbittorrent.com%3A80","udp%3A%2F%2Fopen.demonii.com%3A1337","udp%3A%2F%2Ftracker.coppersurfer.tk%3A6969","udp%3A%2F%2Fexodus.desync.com%3A6969"],"infoHash":"2b38b72ecdcaf1a1adb9c7ab155d1af84686541b","infoHashBuffer":{"type":"Buffer","data":[43,56,183,46,205,202,241,161,173,185,199,171,21,93,26,248,70,134,84,27]},"announce":[],"urlList":[]}}